HIERARCHY
ROOT Hips
{
	OFFSET 0.000000 0.000000 0.000000
	CHANNELS 6 Xposition Yposition Zposition Zrotation Yrotation Xrotation 
	JOINT LHipJoint
	{
		OFFSET 0.000000 0.000000 0.000000
		CHANNELS 3 Zrotation Yrotation Xrotation
		JOINT LeftUpLeg
		{
			OFFSET 1.363060 -1.794630 0.839290
			CHANNELS 3 Zrotation Yrotation Xrotation
			JOINT LeftLeg
			{
				OFFSET 2.448110 -6.726130 0.000000
				CHANNELS 3 Zrotation Yrotation Xrotation
				JOINT LeftFoot
				{
					OFFSET 2.562200 -7.039590 0.000000
					CHANNELS 3 Zrotation Yrotation Xrotation
					JOINT LeftToeBase
					{
						OFFSET 0.157640 -0.433110 2.322550
						CHANNELS 3 Zrotation Yrotation Xrotation
						End Site
						{
							OFFSET 0.000000 0.000000 0.000000
						}
					}
				}
			}
		}
	}
	JOINT RHipJoint
	{
		OFFSET 0.000000 0.000000 0.000000
		CHANNELS 3 Zrotation Yrotation Xrotation
		JOINT RightUpLeg
		{
			OFFSET -1.305520 -1.794630 0.839290
			CHANNELS 3 Zrotation Yrotation Xrotation
			JOINT RightLeg
			{
				OFFSET -2.542530 -6.985550 0.000000
				CHANNELS 3 Zrotation Yrotation Xrotation
				JOINT RightFoot
				{
					OFFSET -2.568260 -7.056230 0.000000
					CHANNELS 3 Zrotation Yrotation Xrotation
					JOINT RightToeBase
					{
						OFFSET -0.164730 -0.452590 2.363150
						CHANNELS 3 Zrotation Yrotation Xrotation
						End Site
						{
							OFFSET 0.000000 0.000000 0.000000
						}
					}
				}
			}
		}
	}
}
MOTION
Frames: 33
Frame Time: 0.008333
-11.689441 16.609168 -2.263422 12.457748 87.486377 33.000138 -9.553720 -1.521240 1.741097 -5.540601 -2.852522 -49.259586 -1.552078 0.726698 20.625294 0.993596 6.112235 8.188205 2.139900 0.000000 -34.548800 9.605371 -2.587038 -2.227871 5.042866 -2.642638 1.324156 2.308216 -1.282573 18.682082 0.724000 7.430978 -1.522785 0.583100 -0.000000 -77.607700
-11.503717 16.621126 -2.273534 16.379493 87.461539 36.840343 -9.477451 -1.527944 1.569738 -6.058663 -2.625832 -49.135164 -1.532275 0.803870 22.038726 1.018057 6.288599 7.822521 2.145100 0.000000 -34.008400 9.886109 -2.732612 -2.234471 4.422325 -3.005144 0.474888 2.125108 -1.594708 20.940571 0.737233 7.738914 0.084193 0.803100 0.000000 -80.023400
-11.320166 16.634980 -2.285446 18.888541 87.332423 39.255380 -9.402574 -1.500456 1.415906 -6.545569 -2.387946 -48.911690 -1.522754 0.868724 23.305863 1.053984 6.493169 7.187821 2.126300 -0.000000 -33.650900 10.153464 -2.835702 -2.257088 3.804365 -3.414272 -0.495345 1.910851 -1.893067 23.371494 0.730124 8.030400 1.863708 1.070200 -0.000000 -82.065900
-11.139107 16.650141 -2.299308 20.392006 87.129289 40.658280 -9.339689 -1.454166 1.280693 -6.992769 -2.167754 -48.591694 -1.520653 0.920319 24.429436 1.101335 6.732244 6.334493 2.086500 0.000000 -33.456800 10.399079 -2.904051 -2.292280 3.197046 -3.859349 -1.582095 1.667973 -2.175894 25.952394 0.695125 8.265984 3.819479 1.382000 -0.000001 -83.637600
-10.960751 16.666134 -2.315334 21.049144 86.869228 41.213954 -9.296075 -1.397924 1.165768 -7.384311 -1.977927 -48.190080 -1.522357 0.960322 25.420385 1.159652 7.003616 5.320707 2.027201 0.000000 -33.392800 10.614362 -2.939702 -2.334883 2.624492 -4.312018 -2.772566 1.399782 -2.438061 28.651379 0.625348 8.394259 5.949795 1.726700 -0.000000 -84.624401
-10.785314 16.682635 -2.333277 21.088993 86.569193 41.155221 -9.270553 -1.337071 1.070314 -7.716008 -1.827495 -47.718698 -1.525143 0.989552 26.287115 1.227827 7.306118 4.210604 1.951700 0.000000 -33.419799 10.801077 -2.943064 -2.380656 2.099989 -4.753054 -4.051568 1.112091 -2.675079 31.435380 0.516404 8.373600 8.239855 2.083200 0.000000 -84.908000
-10.612869 16.699499 -2.352959 20.600427 86.240599 40.573994 -9.264098 -1.274814 0.993165 -7.980860 -1.712742 -47.195831 -1.526312 1.010666 27.043140 1.303959 7.632251 3.064244 1.862700 0.000000 -33.500100 10.956679 -2.913224 -2.425736 1.644979 -5.158289 -5.399207 0.813269 -2.881903 34.266039 0.366484 8.160526 10.658542 2.417000 -0.000000 -84.396100
-10.443520 16.716756 -2.373672 19.805282 85.897785 39.691298 -9.269911 -1.212596 0.930049 -8.189085 -1.631261 -46.628962 -1.524824 1.024261 27.694641 1.385553 7.978336 1.938183 1.765499 0.000000 -33.601600 11.089211 -2.850260 -2.468269 1.260888 -5.521521 -6.796892 0.514572 -3.056945 37.108063 0.177472 7.730223 13.151687 2.685900 -0.000001 -83.030900
-10.277305 16.734606 -2.394772 18.839831 85.551955 38.641737 -9.283763 -1.151271 0.876321 -8.350730 -1.573170 -46.025664 -1.520204 1.031521 28.248126 1.469642 8.336951 0.877314 1.665200 -0.000000 -33.702800 11.202907 -2.755716 -2.507399 0.950464 -5.837742 -8.224829 0.228144 -3.200722 39.924902 -0.045629 7.061243 15.645523 2.840600 0.000000 -80.850200
-10.114208 16.753373 -2.415531 17.837652 85.213538 37.555845 -9.301123 -1.091308 0.826531 -8.480527 -1.526374 -45.387953 -1.513040 1.032881 28.705608 1.553117 8.700391 -0.085824 1.566501 -0.000000 -33.793600 11.302595 -2.633502 -2.543446 0.710037 -6.108339 -9.664679 -0.034868 -3.317126 42.682484 -0.294860 6.142848 18.049094 2.833100 -0.000000 -78.000400
-9.954143 16.773421 -2.435312 16.878446 84.889655 36.510403 -9.319651 -1.032900 0.775694 -8.591378 -1.475828 -44.715962 -1.504627 1.028783 29.066890 1.632885 9.058625 -0.932934 1.473200 -0.000000 -33.874000 11.390450 -2.489462 -2.577064 0.536470 -6.334285 -11.100373 -0.266987 -3.412177 45.349496 -0.560553 4.972171 20.264407 2.624500 0.000000 -74.740900
-9.797010 16.795127 -2.453638 16.002323 84.584615 35.543427 -9.338560 -0.975858 0.719730 -8.693531 -1.405693 -44.008285 -1.496788 1.019537 29.329021 1.706252 9.401181 -1.658458 1.387300 0.000000 -33.950199 11.467106 -2.330495 -2.608856 0.426680 -6.515556 -12.520041 -0.465665 -3.492970 47.900394 -0.832414 3.560319 22.194355 2.194900 0.000000 -71.376500
-9.642692 16.818820 -2.470114 15.234934 84.300102 34.678676 -9.357236 -0.919595 0.655637 -8.795884 -1.302947 -43.261086 -1.491694 1.004964 29.485877 1.771120 9.718626 -2.267000 1.309900 0.000000 -34.030600 11.533401 -2.163674 -2.639172 0.376129 -6.651854 -13.916469 -0.633077 -3.566754 50.317641 -1.100704 1.936871 23.750373 1.551000 0.000000 -68.182100
-9.490860 16.844742 -2.484892 14.481062 84.033820 33.823753 -9.380346 -0.863275 0.583886 -8.891042 -1.151323 -42.480533 -1.490898 0.986502 29.537167 1.825608 9.997001 -2.773650 1.239400 -0.000000 -34.123299 11.584145 -1.995333 -2.667199 0.395689 -6.736142 -15.288370 -0.775793 -3.637589 52.590138 -1.356743 0.146685 24.857760 0.725800 -0.000000 -65.331500
-9.341535 16.872908 -2.497281 13.889553 83.787466 33.122987 -9.400647 -0.805794 0.501149 -9.001514 -0.956039 -41.645952 -1.496885 0.960830 29.465637 1.869807 10.240018 -3.189709 1.176800 -0.000001 -34.234400 11.629123 -1.830523 -2.693925 0.455958 -6.778215 -16.635129 -0.899610 -3.713252 54.715458 -1.593467 -1.732540 25.459131 -0.212800 0.000000 -62.930799
-9.194227 16.903286 -2.508234 13.216442 83.554874 32.341616 -9.429371 -0.746507 0.413813 -9.095510 -0.702443 -40.781718 -1.509424 0.931760 29.284205 1.902375 10.429349 -3.539480 1.117300 0.000001 -34.366199 11.655530 -1.672948 -2.716734 0.591049 -6.764642 -17.964583 -1.013541 -3.790899 56.687510 -1.804906 -3.627861 25.525055 -1.189000 0.000001 -60.923900
-9.048760 16.935676 -2.517703 12.499953 83.335343 31.518981 -9.464158 -0.684845 0.323208 -9.176034 -0.399366 -39.882515 -1.529011 0.897897 28.987860 1.923995 10.567259 -3.835986 1.060500 0.000000 -34.518000 11.667119 -1.524853 -2.735058 0.789030 -6.700226 -19.280281 -1.121946 -3.871807 58.501691 -1.986435 -5.444045 25.053720 -2.110900 -0.000000 -59.234200
-8.904862 16.969709 -2.526055 11.691088 83.127772 30.610921 -9.506706 -0.620600 0.233216 -9.233498 -0.054023 -38.956611 -1.554901 0.859810 28.583122 1.935178 10.652266 -4.091511 1.005100 -0.000000 -34.687900 11.662449 -1.387173 -2.747007 1.052211 -6.584031 -20.585833 -1.227100 -3.953339 60.149103 -2.134617 -7.095072 24.078460 -2.897400 0.000000 -57.761000
-8.762178 17.005023 -2.533674 10.746162 82.931299 29.581083 -9.558167 -0.553746 0.149051 -9.257264 0.321496 -38.017464 -1.585530 0.818187 28.080508 1.936979 10.686527 -4.313240 0.951200 0.000000 -34.872300 11.640308 -1.259774 -2.749762 1.383588 -6.415629 -21.886864 -1.328161 -4.031403 61.618449 -2.246729 -8.506512 22.662206 -3.487501 -0.000000 -56.359500
-8.620906 17.041154 -2.540476 9.711598 82.746933 28.469864 -9.615748 -0.484993 0.068055 -9.251588 0.719070 -37.056843 -1.620064 0.772959 27.486675 1.929691 10.673103 -4.501597 0.899400 0.000000 -35.068800 11.604329 -1.141259 -2.743867 1.766609 -6.198894 -23.168680 -1.420726 -4.103647 62.891887 -2.322319 -9.628300 20.910228 -3.853000 0.000000 -55.037100
-8.480533 17.077691 -2.546849 8.534120 82.575773 27.235414 -9.680524 -0.414576 -0.002963 -9.204586 1.122835 -36.099556 -1.655804 0.725631 26.821208 1.914778 10.617246 -4.655205 0.851501 0.000000 -35.273400 11.552727 -1.030079 -2.725789 2.206159 -5.935646 -24.439384 -1.500227 -4.164826 63.958246 -2.360795 -10.433291 18.927069 -3.995400 0.000000 -53.618700
-8.340963 17.114260 -2.552676 7.255289 82.421414 25.920117 -9.749554 -0.343124 -0.063381 -9.120315 1.519520 -35.151650 -1.690949 0.676570 26.098520 1.893389 10.526997 -4.768033 0.809699 0.000000 -35.483800 11.488586 -0.924164 -2.694462 2.688608 -5.633145 -25.694147 -1.561126 -4.212511 64.804218 -2.364610 -10.924465 16.843601 -3.947500 -0.000000 -52.118300
-8.202424 17.150500 -2.557766 5.890907 82.285280 24.532699 -9.821494 -0.271677 -0.117573 -9.001377 1.911781 -34.212607 -1.724626 0.627415 25.335790 1.865024 10.401410 -4.834935 0.774900 0.000001 -35.701001 11.413759 -0.821474 -2.651709 3.203845 -5.298225 -26.916835 -1.599540 -4.244955 65.418335 -2.338146 -11.130936 14.786546 -3.761100 -0.000000 -50.627100
-8.064904 17.186099 -2.561949 4.456631 82.169733 23.086500 -9.894961 -0.200863 -0.167269 -8.850804 2.299035 -33.288894 -1.755897 0.579607 24.551635 1.829833 10.242060 -4.851676 0.747800 0.000000 -35.928100 11.330033 -0.720674 -2.598427 3.743661 -4.940070 -28.100754 -1.613735 -4.261427 65.796737 -2.286540 -11.094489 12.858706 -3.490700 -0.000000 -49.180400
-7.928214 17.220951 -2.564838 3.017068 82.078932 21.647365 -9.966988 -0.131284 -0.212786 -8.678771 2.671869 -32.385345 -1.783833 0.533188 23.757794 1.789342 10.059332 -4.812596 0.730200 -0.000000 -36.165299 11.240549 -0.621002 -2.535384 4.292757 -4.570682 -29.245902 -1.603718 -4.263137 65.939677 -2.215662 -10.863863 11.138378 -3.184600 -0.000001 -47.869400
-7.792467 17.254827 -2.566035 1.620849 82.014657 20.258641 -10.036192 -0.063534 -0.257762 -8.495421 3.034840 -31.502460 -1.808902 0.488968 22.967023 1.743620 9.854023 -4.717852 0.721500 0.000000 -36.415899 11.147361 -0.522491 -2.464778 4.838715 -4.200013 -30.346804 -1.571293 -4.252053 65.853514 -2.131079 -10.488409 9.666788 -2.878000 0.000000 -46.796700
-7.657801 17.287595 -2.565310 0.283242 81.976240 18.929413 -10.102600 0.001947 -0.306267 -8.305498 3.396768 -30.637156 -1.831737 0.448018 22.190205 1.692694 9.625284 -4.571848 0.719800 -0.000000 -36.684300 11.051211 -0.425656 -2.389678 5.374992 -3.835161 -31.395288 -1.518901 -4.230022 65.547376 -2.037314 -10.011696 8.448361 -2.591400 0.000000 -46.019600
-7.523967 17.319130 -2.562264 -0.906322 81.965850 17.752228 -10.164350 0.065166 -0.357367 -8.124563 3.748380 -29.792136 -1.852773 0.409290 21.430652 1.638672 9.384721 -4.378581 0.725100 -0.000000 -36.968700 10.954063 -0.331469 -2.310385 5.884590 -3.485572 -32.400917 -1.448546 -4.200320 65.036548 -1.937200 -9.463325 7.456780 -2.331300 -0.000001 -45.556400
-7.391473 17.349242 -2.557049 -2.009577 81.975434 16.648320 -10.224178 0.125844 -0.420389 -7.946672 4.121886 -28.952608 -1.874136 0.375223 20.697586 1.579243 9.115061 -4.152040 0.731900 0.000000 -37.279000 10.854771 -0.240831 -2.232610 6.372794 -3.151930 -33.340732 -1.361623 -4.164009 64.332351 -1.832043 -8.865776 6.637860 -2.095700 -0.000000 -45.353600
-7.259795 17.377799 -2.549330 -2.905115 82.008821 15.752559 -10.279525 0.184365 -0.487827 -7.790121 4.487603 -28.127533 -1.895258 0.342742 19.985632 1.518938 8.841861 -3.898305 0.741500 0.000000 -37.606300 10.754884 -0.154835 -2.153088 6.819567 -2.841302 -34.240374 -1.258430 -4.124099 63.451597 -1.722384 -8.228741 5.938491 -1.879000 0.000000 -45.373100
-7.128779 17.404645 -2.539299 -3.605296 82.060966 15.053561 -10.331304 0.240937 -0.559816 -7.654799 4.848836 -27.316849 -1.916837 0.311786 19.295730 1.458488 8.566265 -3.629914 0.751600 0.000000 -37.951600 10.653334 -0.073755 -2.072023 7.224733 -2.552553 -35.102525 -1.138609 -4.080977 62.403619 -1.608110 -7.558719 5.303265 -1.675200 -0.000000 -45.534800
-6.998926 17.429599 -2.527301 -4.149566 82.122039 14.495405 -10.380991 0.295180 -0.643675 -7.534498 5.223546 -26.495670 -1.939701 0.283101 18.624422 1.397200 8.282364 -3.359267 0.758800 -0.000000 -38.321900 10.549736 0.001995 -1.994450 7.589756 -2.285028 -35.902426 -1.000989 -4.034706 61.190518 -1.488923 -6.859394 4.687277 -1.480000 0.000000 -45.757400
-6.869443 17.452476 -2.513404 -4.502235 82.194211 14.134250 -10.427549 0.347732 -0.728949 -7.435396 5.585638 -25.687174 -1.962962 0.254434 17.970971 1.338315 8.007422 -3.094342 0.764400 0.000000 -38.711300 10.443177 0.072035 -1.913205 7.910866 -2.036594 -36.669943 -0.844756 -3.984459 59.816267 -1.365508 -6.135450 4.069544 -1.292800 -0.000000 -45.982500
